<svg width="25" height="24" viewBox="0 0 25 24" fill="none" xmlns="http://www.w3.org/2000/svg">
<rect width="25" height="24" fill="#BEBEBE"/>
<g id="iPhone X" clip-path="url(#clip0_8_0)">
<rect width="375" height="1747" transform="translate(-38 -831)" fill="#F8FFF0"/>
<g id="bg" filter="url(#filter0_d_8_0)">
<rect x="-22" y="-148" width="343" height="791" rx="12" fill="white"/>
</g>
<g id="Frame 95">
<circle id="Ellipse 52" cx="12" cy="11" r="18" fill="#F1F6F1"/>
<g id="Frame 93">
<circle id="Ellipse 68" cx="11.72" cy="11.5" r="8" stroke="#ABB694"/>
<path id="Ellipse 69" d="M15.72 11.5C15.72 13.7823 15.2291 15.8237 14.4601 17.2765C13.6791 18.7516 12.6861 19.5 11.72 19.5C10.7538 19.5 9.76081 18.7516 8.97988 17.2765C8.2108 15.8237 7.71997 13.7823 7.71997 11.5C7.71997 9.21769 8.2108 7.17625 8.97988 5.72354C9.76081 4.24845 10.7538 3.5 11.72 3.5C12.6861 3.5 13.6791 4.24845 14.4601 5.72354C15.2291 7.17625 15.72 9.21769 15.72 11.5Z" stroke="#ABB694"/>
<path id="Vector 32" d="M11.72 3.5V19.5M3.71997 11.5H19.72" stroke="#ABB694"/>
<path id="Intersect" d="M18.22 7C16.379 7.63022 14.1378 8 11.72 8C9.30212 8 7.0609 7.63022 5.21997 7" stroke="#ABB694" stroke-linecap="round"/>
<path id="Intersect_2" d="M5.21997 16C7.0609 15.3698 9.30212 15 11.72 15C14.1378 15 16.379 15.3698 18.22 16" stroke="#ABB694" stroke-linecap="round"/>
</g>
</g>
</g>
<defs>
<filter id="filter0_d_8_0" x="-42" y="-168" width="383" height="831" filterUnits="userSpaceOnUse" color-interpolation-filters="sRGB">
<feFlood flood-opacity="0" result="BackgroundImageFix"/>
<feColorMatrix in="SourceAlpha" type="matrix" values="0 0 0 0 0 0 0 0 0 0 0 0 0 0 0 0 0 0 127 0" result="hardAlpha"/>
<feOffset/>
<feGaussianBlur stdDeviation="10"/>
<feColorMatrix type="matrix" values="0 0 0 0 0 0 0 0 0 0 0 0 0 0 0 0 0 0 0.1 0"/>
<feBlend mode="normal" in2="BackgroundImageFix" result="effect1_dropShadow_8_0"/>
<feBlend mode="normal" in="SourceGraphic" in2="effect1_dropShadow_8_0" result="shape"/>
</filter>
<clipPath id="clip0_8_0">
<rect width="375" height="1747" fill="white" transform="translate(-38 -831)"/>
</clipPath>
</defs>
</svg>
